<!--?xml version="1.0" encoding="utf-8"?-->
<!-- Generator: Adobe Illustrator 18.1.1, SVG Export Plug-In . SVG Version: 6.00 Build 0)  -->

<svg version="1.1" id="_x32_" xmlns="http://www.w3.org/2000/svg" xmlns:xlink="http://www.w3.org/1999/xlink" x="0px" y="0px" viewBox="0 0 512 512" style="width: 256px; height: 256px; opacity: 1;" xml:space="preserve">
<style type="text/css">
	.st0{fill:#4B4B4B;}
</style>
<g>
	<path class="st0" d="M374.652,283.614c1.78-7.641,2.804-15.555,3.056-23.671c5.935,0,12.047,0.831,18.338,3.056
		c37.342,13.353,88.037,13.353,93.348-15.993c-45.413,23.915-63.113-27.039-116.225-24.421c-2.285-7.967-5.312-15.608-9.065-22.832
		c7.671-6.58,17.106-11.772,28.767-13.88c42.787-7.833,90.93-35.607,79.922-66.428c-32.046,50.791-80.753,3.278-133.584,47.639
		c-5.801-5.423-12.136-10.304-18.916-14.532c2.937-5.118,6.735-10,11.825-14.317c30.206-25.681,55.56-69.566,32.817-88.853
		c-2.018,51.318-55.012,41.14-79.299,88.49c-7.833-1.958-15.919-3.146-24.272-3.516c-1.87-9.94-1.647-20.756,2.329-31.957
		C278.336,61.429,278.336,5.853,246.141,0c27.951,53.09-37.461,71.524-25.562,139.355c-7.7,2.358-15.089,5.423-22.076,9.154
		c-2.938-5.089-5.252-10.771-6.424-17.292c-7.136-39.026-32.491-82.897-60.561-72.852c43.455,27.417,7.922,68.238,36.868,112.976
		c-5.638,5.868-10.696,12.292-15.103,19.19c-9.54-3.345-18.783-8.961-26.438-17.989c-28.174-33.151-76.317-60.946-97.488-35.992
		c59.982,2.336,43.218,68.253,108.007,91.835c-1.795,7.641-2.804,15.555-3.071,23.693c-5.92,0-12.047-0.838-18.322-3.086
		c-37.358-13.345-88.023-13.345-93.364,16.023c45.443-23.938,63.113,27.016,116.24,24.398c2.27,7.967,5.311,15.622,9.065,22.832
		c-7.656,6.58-17.136,11.788-28.767,13.909c-42.788,7.804-90.945,35.607-79.908,66.391c32.031-50.769,80.738-3.249,133.57-47.631
		c5.815,5.453,12.136,10.319,18.931,14.532c-2.953,5.134-6.721,10-11.824,14.317c-30.222,25.696-55.562,69.566-32.818,88.853
		c2.003-51.303,55.012-41.118,79.284-88.49c7.834,1.951,15.934,3.168,24.287,3.516c1.869,9.956,1.647,20.756-2.344,31.942
		c-14.628,40.984-14.628,96.56,17.566,102.413c-27.966-53.09,37.446-71.524,25.518-139.355c7.73-2.336,15.133-5.423,22.12-9.154
		c2.938,5.089,5.237,10.771,6.439,17.276c7.136,39.026,32.446,82.912,60.531,72.868c-43.455-27.41-7.908-68.238-36.883-112.992
		c5.668-5.853,10.726-12.277,15.103-19.175c9.554,3.338,18.797,8.946,26.468,17.989c28.174,33.151,76.302,60.932,97.473,35.992
		C422.661,373.112,439.455,307.174,374.652,283.614z M242.803,301.751c-5.207-9.102-5.207-50.71-5.207-50.71
		s-27.313,18.204-55.932-7.811c1.306-3.895,23.412-27.291,63.736-7.782c8.442,8.434,6.484,63.706,6.484,63.706l23.411-1.306
		C275.295,297.849,247.981,310.852,242.803,301.751z M272.698,240.21c0,0,22.506-28.492,58.513-4.488
		C322.221,259.712,286.214,256.708,272.698,240.21z" style="fill: rgb(255, 205, 0);"></path>
</g>
</svg>
